<?xml version="1.0" standalone="no"?>
<!DOCTYPE svg PUBLIC "-//W3C//DTD SVG 20010904//EN" "http://www.w3.org/TR/2001/REC-SVG-20010904/DTD/svg10.dtd">
<svg xmlns="http://www.w3.org/2000/svg" version="1.0" width="1024.000000pt" height="1024.000000pt" viewBox="0 0 1024.000000 1024.000000" preserveAspectRatio="xMidYMid meet">
<metadata>
Created by potrace 1.16, written by Peter Selinger 2001-2019
<meta name="Producer" content="Online-Convert"/></metadata>
<g transform="translate(0.000000,1024.000000) scale(0.100000,-0.100000)" fill="#000000" stroke="none">
<path d="M0 5120 l0 -5120 5120 0 5120 0 0 5120 0 5120 -5120 0 -5120 0 0 -5120z m7075 1619 c24 -23 43 -46 42 -52 -1 -6 3 -12 8 -12 26 -4 46 -19 41 -32 -3 -8 -1 -11 4 -8 11 7 165 -134 445 -405 227 -220 376 -352 457 -404 l28 -18 56 51 c59 54 74 60 94 36 11 -13 5 -23 -37 -63 -90 -86 -87 -63 -91 -723 l-3 -577 -32 -13 c-18 -7 -90 -40 -162 -74 -139 -67 -238 -136 -347 -243 l-67 -65 -55 39 c-234 164 -261 180 -422 239 -87 32 -161 60 -162 61 -2 1 14 19 36 39 29 26 44 49 52 83 15 61 25 824 12 947 -6 57 -6 95 0 102 6 7 29 23 51 36 23 13 78 46 122 73 44 28 118 69 165 92 125 61 120 51 54 119 -87 88 -164 154 -173 149 -4 -3 -23 11 -42 32 l-34 37 40 -35 40 -35 -34 37 c-19 21 -37 35 -41 33 -4 -3 -45 27 -90 67 -93 81 -90 69 -56 223 9 39 18 113 21 165 7 114 12 140 25 140 6 0 30 -18 55 -41z m-1458 -119 c87 -79 226 -210 308 -290 289 -280 546 -500 585 -500 10 0 25 11 34 25 9 14 28 32 42 41 24 16 26 16 47 -4 l21 -22 -42 -36 c-82 -70 -77 -25 -80 -700 l-3 -602 -47 -17 c-88 -33 -257 -123 -322 -171 -36 -26 -94 -75 -130 -109 -105 -98 -89 -96 -178 -28 -176 136 -279 193 -439 242 -57 17 -103 36 -103 42 0 6 14 29 31 50 59 75 60 86 59 619 -1 267 -2 496 -3 509 -3 36 84 84 383 212 l44 20 -134 135 c-74 75 -125 131 -112 125 12 -7 29 -22 37 -34 8 -12 58 -62 112 -112 118 -109 86 -68 -54 69 -58 56 -106 95 -113 91 -16 -10 -190 152 -190 177 0 11 6 46 14 77 8 31 19 110 25 176 13 140 19 167 36 163 8 -2 85 -68 172 -148z m-4127 -606 c166 -123 253 -178 330 -205 l74 -26 1 -623 0 -622 -211 -107 c-206 -104 -227 -118 -391 -257 l-42 -36 -63 48 c-35 26 -91 69 -125 96 -74 55 -181 108 -313 153 -145 50 -136 40 -90 92 69 79 70 81 70 608 0 259 0 475 -1 480 -1 6 -1 21 0 35 2 20 0 22 -8 10 -9 -13 -11 -12 -11 5 0 15 49 49 213 147 116 70 264 165 327 211 91 66 118 81 130 73 8 -6 58 -43 110 -82z m1541 22 c63 -40 168 -103 233 -139 l120 -67 67 65 c37 36 71 65 76 65 6 0 15 -11 21 -24 9 -21 6 -28 -24 -57 -53 -51 -91 -126 -114 -223 -74 -311 -81 -778 -15 -1016 9 -30 52 -128 97 -217 75 -149 81 -167 86 -235 10 -161 -44 -240 -266 -389 -163 -109 -217 -148 -296 -211 -33 -27 -68 -48 -78 -48 -10 0 -45 18 -77 40 -141 96 -246 123 -481 124 -124 0 -154 -3 -205 -21 -55 -20 -60 -20 -71 -5 -14 19 -6 35 56 112 20 25 72 90 115 145 43 55 130 153 194 217 63 65 113 119 110 122 -2 2 -29 16 -59 31 -72 36 -217 136 -254 174 l-29 30 -2 576 -1 576 35 28 c70 54 267 188 351 239 47 28 128 80 180 116 52 35 100 64 106 65 6 0 62 -32 125 -73z m6175 -1 c119 -72 354 -195 373 -195 5 0 16 11 24 24 9 13 32 34 52 46 l36 22 25 -23 25 -23 -41 -35 c-55 -49 -68 -95 -87 -301 -12 -138 -14 -247 -9 -515 3 -187 9 -371 13 -408 l6 -68 60 -46 c52 -40 62 -45 79 -34 16 10 25 9 50 -7 l31 -20 -94 -69 c-52 -38 -129 -107 -172 -153 -76 -81 -79 -82 -104 -69 -14 8 -57 42 -94 77 -75 69 -83 87 -95 205 -4 37 -11 70 -15 73 -22 13 -177 -85 -357 -227 -74 -57 -146 -112 -161 -121 l-27 -18 -72 65 c-77 71 -148 169 -183 255 -19 47 -23 73 -23 180 0 117 2 130 32 206 56 140 179 308 292 399 33 27 60 50 60 52 0 1 -34 36 -77 76 -122 116 -226 298 -197 344 19 31 44 40 55 21 8 -15 23 -6 112 71 173 150 342 290 350 291 5 0 64 -34 133 -75z m-4765 19 c120 -66 439 -224 453 -224 7 0 22 12 33 28 11 15 37 36 58 47 36 19 37 19 51 1 12 -17 9 -23 -30 -57 -60 -53 -97 -145 -103 -259 -7 -116 14 -967 24 -984 4 -7 33 -41 65 -74 54 -59 57 -61 86 -50 25 10 35 9 58 -7 l28 -18 -39 -31 c-21 -17 -101 -89 -178 -159 l-138 -128 -39 31 c-61 48 -128 132 -145 181 -9 24 -19 72 -22 107 -3 34 -10 62 -15 62 -5 0 -91 -63 -191 -140 -100 -77 -212 -161 -249 -186 l-68 -47 -42 28 c-106 69 -239 239 -267 340 -25 91 -6 300 38 415 28 74 141 222 221 289 36 30 80 67 98 83 l34 29 -29 21 c-60 46 -207 196 -252 258 -74 100 -77 107 -50 136 24 26 45 31 51 12 3 -7 20 3 44 24 21 19 84 65 139 101 55 36 140 100 190 141 49 42 92 76 96 76 4 0 44 -21 90 -46z"/>
<path d="M7415 5779 c-39 -19 -62 -37 -67 -51 -3 -13 -6 -249 -7 -525 l-1 -501 44 -26 c24 -14 108 -69 186 -121 79 -52 146 -95 150 -95 4 0 14 7 21 17 11 13 15 116 17 553 l3 538 -120 106 c-65 59 -122 113 -125 121 -8 21 -33 17 -101 -16z"/>
<path d="M5829 5789 l-45 -20 -13 -252 c-6 -139 -15 -378 -18 -532 l-6 -281 64 -31 c95 -47 260 -147 292 -177 22 -21 32 -24 51 -16 19 7 26 18 30 52 8 66 15 872 9 967 l-6 83 -96 71 c-53 39 -119 90 -147 114 -28 23 -55 43 -60 43 -5 -1 -30 -10 -55 -21z"/>
<path d="M1113 5817 c-3 -6 -9 -259 -11 -562 l-5 -551 30 -13 c16 -6 89 -59 163 -116 140 -108 157 -116 218 -94 l31 11 1 306 c0 169 -2 420 -6 558 l-7 252 -101 48 c-56 27 -147 77 -204 110 -64 39 -105 58 -109 51z"/>
<path d="M2596 5833 c-3 -4 -6 -257 -6 -564 l0 -557 73 -55 c77 -58 167 -117 178 -117 3 0 50 53 103 118 l97 119 4 415 4 414 -112 55 c-61 30 -149 77 -196 104 -101 59 -137 76 -145 68z"/>
<path d="M2880 4409 c-296 -303 -344 -355 -362 -385 l-17 -30 64 4 c192 12 462 -58 578 -149 21 -17 43 -27 50 -23 6 4 42 27 79 52 l66 44 -14 42 c-17 48 -29 67 -101 163 -30 40 -68 102 -84 137 -31 67 -69 223 -69 289 0 20 -3 37 -7 36 -5 0 -87 -81 -183 -180z"/>
<path d="M8790 5789 c-35 -49 -45 -92 -36 -162 16 -119 80 -199 248 -310 76 -50 233 -127 260 -127 12 0 5 362 -8 406 -3 14 -25 29 -60 44 -30 12 -125 60 -210 106 -86 46 -157 84 -160 84 -2 0 -17 -19 -34 -41z"/>
<path d="M8917 5172 c-98 -126 -137 -218 -137 -321 1 -98 52 -198 157 -308 l61 -64 136 82 136 82 0 166 c-1 91 -4 194 -7 227 l-5 62 -67 22 c-36 12 -103 41 -148 65 l-82 43 -44 -56z"/>
<path d="M4042 5797 l-64 -32 7 -40 c10 -69 52 -144 117 -212 70 -73 207 -183 298 -238 51 -31 157 -75 182 -75 10 0 11 216 1 321 l-6 74 -231 115 c-127 63 -233 116 -236 117 -3 1 -34 -13 -68 -30z"/>
<path d="M4227 5177 c-158 -196 -178 -355 -68 -524 21 -32 63 -85 92 -117 64 -69 43 -73 221 43 l117 76 0 208 0 207 -41 21 c-22 11 -88 52 -146 90 -58 38 -108 69 -111 69 -3 -1 -32 -33 -64 -73z"/>
</g>
</svg>
